solid OpenSCAD_Model
  facet normal 0 -0 -1
    outer loop
      vertex 15 -11.4645 0
      vertex 15 -15 0
      vertex 11.4645 -15 0
    endloop
  endfacet
  facet normal 0 0 -1
    outer loop
      vertex -3.53552 0 0
      vertex -11.4645 15 0
      vertex 0 3.53552 0
    endloop
  endfacet
  facet normal -0 0 -1
    outer loop
      vertex 15 -11.4645 0
      vertex 11.4645 -15 0
      vertex 3.53552 0 0
    endloop
  endfacet
  facet normal 0 0 -1
    outer loop
      vertex 15 11.4645 0
      vertex 11.4645 15 0
      vertex 15 15 0
    endloop
  endfacet
  facet normal -0 0 -1
    outer loop
      vertex 15 11.4645 0
      vertex 3.53552 0 0
      vertex 11.4645 15 0
    endloop
  endfacet
  facet normal 0 0 -1
    outer loop
      vertex 11.4645 15 0
      vertex 3.53552 0 0
      vertex 0 3.53552 0
    endloop
  endfacet
  facet normal 0 0 -1
    outer loop
      vertex -15 11.4645 0
      vertex -15 15 0
      vertex -11.4645 15 0
    endloop
  endfacet
  facet normal 0 0 -1
    outer loop
      vertex -3.53552 0 0
      vertex -15 11.4645 0
      vertex -11.4645 15 0
    endloop
  endfacet
  facet normal 0 0 -1
    outer loop
      vertex -11.4645 -15 0
      vertex -15 -15 0
      vertex -15 -11.4645 0
    endloop
  endfacet
  facet normal 0 0 -1
    outer loop
      vertex 0 -3.53552 0
      vertex -3.53552 0 0
      vertex 0 3.53552 0
    endloop
  endfacet
  facet normal 0 -0 -1
    outer loop
      vertex 3.53552 0 0
      vertex 11.4645 -15 0
      vertex 0 -3.53552 0
    endloop
  endfacet
  facet normal 0 0 -1
    outer loop
      vertex -3.53552 0 0
      vertex -11.4645 -15 0
      vertex -15 -11.4645 0
    endloop
  endfacet
  facet normal -0 0 -1
    outer loop
      vertex 3.53552 0 0
      vertex 0 -3.53552 0
      vertex 0 3.53552 0
    endloop
  endfacet
  facet normal -0 0 -1
    outer loop
      vertex 0 -3.53552 0
      vertex -11.4645 -15 0
      vertex -3.53552 0 0
    endloop
  endfacet
  facet normal 0 0 1
    outer loop
      vertex 11.4645 -15 3
      vertex 15 -15 3
      vertex 15 -11.4645 3
    endloop
  endfacet
  facet normal 0 0 1
    outer loop
      vertex 0 3.53552 3
      vertex -11.4645 15 3
      vertex -3.53552 0 3
    endloop
  endfacet
  facet normal 0 0 1
    outer loop
      vertex 3.53552 0 3
      vertex 11.4645 -15 3
      vertex 15 -11.4645 3
    endloop
  endfacet
  facet normal 0 0 1
    outer loop
      vertex 15 15 3
      vertex 11.4645 15 3
      vertex 15 11.4645 3
    endloop
  endfacet
  facet normal 0 0 1
    outer loop
      vertex 11.4645 15 3
      vertex 3.53552 0 3
      vertex 15 11.4645 3
    endloop
  endfacet
  facet normal -0 0 1
    outer loop
      vertex 0 3.53552 3
      vertex 3.53552 0 3
      vertex 11.4645 15 3
    endloop
  endfacet
  facet normal 0 0 1
    outer loop
      vertex -11.4645 15 3
      vertex -15 15 3
      vertex -15 11.4645 3
    endloop
  endfacet
  facet normal 0 0 1
    outer loop
      vertex -11.4645 15 3
      vertex -15 11.4645 3
      vertex -3.53552 0 3
    endloop
  endfacet
  facet normal 0 0 1
    outer loop
      vertex -15 -11.4645 3
      vertex -15 -15 3
      vertex -11.4645 -15 3
    endloop
  endfacet
  facet normal 0 0 1
    outer loop
      vertex 0 3.53552 3
      vertex -3.53552 0 3
      vertex 0 -3.53552 3
    endloop
  endfacet
  facet normal -0 0 1
    outer loop
      vertex 0 -3.53552 3
      vertex 11.4645 -15 3
      vertex 3.53552 0 3
    endloop
  endfacet
  facet normal -0 0 1
    outer loop
      vertex -15 -11.4645 3
      vertex -11.4645 -15 3
      vertex -3.53552 0 3
    endloop
  endfacet
  facet normal 0 0 1
    outer loop
      vertex 0 3.53552 3
      vertex 0 -3.53552 3
      vertex 3.53552 0 3
    endloop
  endfacet
  facet normal 0 0 1
    outer loop
      vertex -3.53552 0 3
      vertex -11.4645 -15 3
      vertex 0 -3.53552 3
    endloop
  endfacet
  facet normal 1 0 0
    outer loop
      vertex 15 -11.4645 0
      vertex 15 -15 3
      vertex 15 -15 0
    endloop
  endfacet
  facet normal 1 0 -0
    outer loop
      vertex 15 -11.4645 0
      vertex 15 -11.4645 3
      vertex 15 -15 3
    endloop
  endfacet
  facet normal 0.707107 0.707106 0
    outer loop
      vertex 3.53552 0 0
      vertex 15 -11.4645 3
      vertex 15 -11.4645 0
    endloop
  endfacet
  facet normal 0.707107 0.707106 -0
    outer loop
      vertex 3.53552 0 0
      vertex 3.53552 0 3
      vertex 15 -11.4645 3
    endloop
  endfacet
  facet normal 0.707107 -0.707106 0
    outer loop
      vertex 15 11.4645 0
      vertex 3.53552 0 3
      vertex 3.53552 0 0
    endloop
  endfacet
  facet normal 0.707107 -0.707106 0
    outer loop
      vertex 15 11.4645 0
      vertex 15 11.4645 3
      vertex 3.53552 0 3
    endloop
  endfacet
  facet normal 1 0 0
    outer loop
      vertex 15 15 0
      vertex 15 11.4645 3
      vertex 15 11.4645 0
    endloop
  endfacet
  facet normal 1 0 -0
    outer loop
      vertex 15 15 0
      vertex 15 15 3
      vertex 15 11.4645 3
    endloop
  endfacet
  facet normal 0 1 0
    outer loop
      vertex 11.4645 15 0
      vertex 15 15 3
      vertex 15 15 0
    endloop
  endfacet
  facet normal 0 1 0
    outer loop
      vertex 11.4645 15 0
      vertex 11.4645 15 3
      vertex 15 15 3
    endloop
  endfacet
  facet normal -0.707106 0.707107 0
    outer loop
      vertex 0 3.53552 0
      vertex 11.4645 15 3
      vertex 11.4645 15 0
    endloop
  endfacet
  facet normal -0.707106 0.707107 0
    outer loop
      vertex 0 3.53552 0
      vertex 0 3.53552 3
      vertex 11.4645 15 3
    endloop
  endfacet
  facet normal 0.707106 0.707107 0
    outer loop
      vertex -11.4645 15 0
      vertex 0 3.53552 3
      vertex 0 3.53552 0
    endloop
  endfacet
  facet normal 0.707106 0.707107 -0
    outer loop
      vertex -11.4645 15 0
      vertex -11.4645 15 3
      vertex 0 3.53552 3
    endloop
  endfacet
  facet normal 0 1 0
    outer loop
      vertex -15 15 0
      vertex -11.4645 15 3
      vertex -11.4645 15 0
    endloop
  endfacet
  facet normal 0 1 0
    outer loop
      vertex -15 15 0
      vertex -15 15 3
      vertex -11.4645 15 3
    endloop
  endfacet
  facet normal -1 0 0
    outer loop
      vertex -15 11.4645 0
      vertex -15 15 3
      vertex -15 15 0
    endloop
  endfacet
  facet normal -1 0 0
    outer loop
      vertex -15 11.4645 0
      vertex -15 11.4645 3
      vertex -15 15 3
    endloop
  endfacet
  facet normal -0.707107 -0.707106 0
    outer loop
      vertex -3.53552 0 0
      vertex -15 11.4645 3
      vertex -15 11.4645 0
    endloop
  endfacet
  facet normal -0.707107 -0.707106 0
    outer loop
      vertex -3.53552 0 0
      vertex -3.53552 0 3
      vertex -15 11.4645 3
    endloop
  endfacet
  facet normal -0.707107 0.707106 0
    outer loop
      vertex -15 -11.4645 0
      vertex -3.53552 0 3
      vertex -3.53552 0 0
    endloop
  endfacet
  facet normal -0.707107 0.707106 0
    outer loop
      vertex -15 -11.4645 0
      vertex -15 -11.4645 3
      vertex -3.53552 0 3
    endloop
  endfacet
  facet normal -1 0 0
    outer loop
      vertex -15 -15 0
      vertex -15 -11.4645 3
      vertex -15 -11.4645 0
    endloop
  endfacet
  facet normal -1 0 0
    outer loop
      vertex -15 -15 0
      vertex -15 -15 3
      vertex -15 -11.4645 3
    endloop
  endfacet
  facet normal 0 -1 0
    outer loop
      vertex -11.4645 -15 0
      vertex -15 -15 3
      vertex -15 -15 0
    endloop
  endfacet
  facet normal 0 -1 0
    outer loop
      vertex -11.4645 -15 0
      vertex -11.4645 -15 3
      vertex -15 -15 3
    endloop
  endfacet
  facet normal 0.707106 -0.707107 0
    outer loop
      vertex 0 -3.53552 0
      vertex -11.4645 -15 3
      vertex -11.4645 -15 0
    endloop
  endfacet
  facet normal 0.707106 -0.707107 0
    outer loop
      vertex 0 -3.53552 0
      vertex 0 -3.53552 3
      vertex -11.4645 -15 3
    endloop
  endfacet
  facet normal -0.707106 -0.707107 0
    outer loop
      vertex 11.4645 -15 0
      vertex 0 -3.53552 3
      vertex 0 -3.53552 0
    endloop
  endfacet
  facet normal -0.707106 -0.707107 0
    outer loop
      vertex 11.4645 -15 0
      vertex 11.4645 -15 3
      vertex 0 -3.53552 3
    endloop
  endfacet
  facet normal 0 -1 0
    outer loop
      vertex 15 -15 0
      vertex 11.4645 -15 3
      vertex 11.4645 -15 0
    endloop
  endfacet
  facet normal 0 -1 0
    outer loop
      vertex 15 -15 0
      vertex 15 -15 3
      vertex 11.4645 -15 3
    endloop
  endfacet
endsolid OpenSCAD_Model
